<mxfile host="app.diagrams.net" modified="2022-03-29T02:15:22.875Z" agent="5.0 (Macintosh; Intel Mac OS X 10_15_7) AppleWebKit/537.36 (KHTML, like Gecko) Chrome/99.0.4844.84 Safari/537.36" etag="LiCG-5vuvmVS2M7tzeHX" version="17.2.4" type="github">
  <diagram id="C5RBs43oDa-KdzZeNtuy" name="Page-1">
    <mxGraphModel dx="946" dy="646" grid="1" gridSize="10" guides="1" tooltips="1" connect="1" arrows="1" fold="1" page="1" pageScale="1" pageWidth="827" pageHeight="1169" math="0" shadow="0">
      <root>
        <mxCell id="WIyWlLk6GJQsqaUBKTNV-0" />
        <mxCell id="WIyWlLk6GJQsqaUBKTNV-1" parent="WIyWlLk6GJQsqaUBKTNV-0" />
        <mxCell id="WIyWlLk6GJQsqaUBKTNV-2" value="" style="rounded=0;html=1;jettySize=auto;orthogonalLoop=1;fontSize=11;endArrow=block;endFill=0;endSize=8;strokeWidth=1;shadow=0;labelBackgroundColor=none;edgeStyle=orthogonalEdgeStyle;" parent="WIyWlLk6GJQsqaUBKTNV-1" source="WIyWlLk6GJQsqaUBKTNV-3" target="IKgTBr2gHRtP3Sj3UkmN-0" edge="1">
          <mxGeometry relative="1" as="geometry">
            <mxPoint x="220" y="170" as="targetPoint" />
          </mxGeometry>
        </mxCell>
        <mxCell id="WIyWlLk6GJQsqaUBKTNV-3" value="Start Game" style="rounded=1;whiteSpace=wrap;html=1;fontSize=12;glass=0;strokeWidth=1;shadow=0;" parent="WIyWlLk6GJQsqaUBKTNV-1" vertex="1">
          <mxGeometry x="160" y="80" width="120" height="40" as="geometry" />
        </mxCell>
        <mxCell id="IKgTBr2gHRtP3Sj3UkmN-7" value="" style="edgeStyle=orthogonalEdgeStyle;rounded=0;orthogonalLoop=1;jettySize=auto;html=1;" edge="1" parent="WIyWlLk6GJQsqaUBKTNV-1" source="IKgTBr2gHRtP3Sj3UkmN-0" target="IKgTBr2gHRtP3Sj3UkmN-6">
          <mxGeometry relative="1" as="geometry" />
        </mxCell>
        <mxCell id="IKgTBr2gHRtP3Sj3UkmN-0" value="Choose game mode" style="rounded=1;whiteSpace=wrap;html=1;" vertex="1" parent="WIyWlLk6GJQsqaUBKTNV-1">
          <mxGeometry x="160" y="150" width="120" height="40" as="geometry" />
        </mxCell>
        <mxCell id="IKgTBr2gHRtP3Sj3UkmN-9" value="" style="edgeStyle=orthogonalEdgeStyle;rounded=0;orthogonalLoop=1;jettySize=auto;html=1;" edge="1" parent="WIyWlLk6GJQsqaUBKTNV-1" source="IKgTBr2gHRtP3Sj3UkmN-6" target="IKgTBr2gHRtP3Sj3UkmN-8">
          <mxGeometry relative="1" as="geometry" />
        </mxCell>
        <mxCell id="IKgTBr2gHRtP3Sj3UkmN-6" value="make a board" style="whiteSpace=wrap;html=1;rounded=1;" vertex="1" parent="WIyWlLk6GJQsqaUBKTNV-1">
          <mxGeometry x="160" y="230" width="120" height="40" as="geometry" />
        </mxCell>
        <mxCell id="IKgTBr2gHRtP3Sj3UkmN-11" value="" style="edgeStyle=orthogonalEdgeStyle;rounded=0;orthogonalLoop=1;jettySize=auto;html=1;" edge="1" parent="WIyWlLk6GJQsqaUBKTNV-1" source="IKgTBr2gHRtP3Sj3UkmN-8" target="IKgTBr2gHRtP3Sj3UkmN-10">
          <mxGeometry relative="1" as="geometry" />
        </mxCell>
        <mxCell id="IKgTBr2gHRtP3Sj3UkmN-8" value="dig first cell" style="whiteSpace=wrap;html=1;rounded=1;" vertex="1" parent="WIyWlLk6GJQsqaUBKTNV-1">
          <mxGeometry x="160" y="300" width="120" height="40" as="geometry" />
        </mxCell>
        <mxCell id="IKgTBr2gHRtP3Sj3UkmN-14" value="No" style="edgeStyle=orthogonalEdgeStyle;rounded=0;orthogonalLoop=1;jettySize=auto;html=1;" edge="1" parent="WIyWlLk6GJQsqaUBKTNV-1" source="IKgTBr2gHRtP3Sj3UkmN-10" target="IKgTBr2gHRtP3Sj3UkmN-13">
          <mxGeometry relative="1" as="geometry" />
        </mxCell>
        <mxCell id="IKgTBr2gHRtP3Sj3UkmN-17" value="Yes" style="edgeStyle=orthogonalEdgeStyle;rounded=0;orthogonalLoop=1;jettySize=auto;html=1;" edge="1" parent="WIyWlLk6GJQsqaUBKTNV-1" source="IKgTBr2gHRtP3Sj3UkmN-10" target="IKgTBr2gHRtP3Sj3UkmN-16">
          <mxGeometry relative="1" as="geometry" />
        </mxCell>
        <mxCell id="IKgTBr2gHRtP3Sj3UkmN-10" value="is it bomb?" style="rhombus;whiteSpace=wrap;html=1;rounded=1;" vertex="1" parent="WIyWlLk6GJQsqaUBKTNV-1">
          <mxGeometry x="160" y="360" width="120" height="60" as="geometry" />
        </mxCell>
        <mxCell id="IKgTBr2gHRtP3Sj3UkmN-12" style="edgeStyle=orthogonalEdgeStyle;rounded=0;orthogonalLoop=1;jettySize=auto;html=1;exitX=0.5;exitY=1;exitDx=0;exitDy=0;" edge="1" parent="WIyWlLk6GJQsqaUBKTNV-1" source="IKgTBr2gHRtP3Sj3UkmN-0" target="IKgTBr2gHRtP3Sj3UkmN-0">
          <mxGeometry relative="1" as="geometry" />
        </mxCell>
        <mxCell id="IKgTBr2gHRtP3Sj3UkmN-20" value="" style="edgeStyle=orthogonalEdgeStyle;rounded=0;orthogonalLoop=1;jettySize=auto;html=1;" edge="1" parent="WIyWlLk6GJQsqaUBKTNV-1" source="IKgTBr2gHRtP3Sj3UkmN-13" target="IKgTBr2gHRtP3Sj3UkmN-19">
          <mxGeometry relative="1" as="geometry" />
        </mxCell>
        <mxCell id="IKgTBr2gHRtP3Sj3UkmN-13" value="dig 8 direction cell" style="whiteSpace=wrap;html=1;rounded=1;" vertex="1" parent="WIyWlLk6GJQsqaUBKTNV-1">
          <mxGeometry x="160" y="450" width="120" height="40" as="geometry" />
        </mxCell>
        <mxCell id="IKgTBr2gHRtP3Sj3UkmN-18" style="edgeStyle=orthogonalEdgeStyle;rounded=0;orthogonalLoop=1;jettySize=auto;html=1;entryX=1;entryY=0.5;entryDx=0;entryDy=0;" edge="1" parent="WIyWlLk6GJQsqaUBKTNV-1" source="IKgTBr2gHRtP3Sj3UkmN-16" target="IKgTBr2gHRtP3Sj3UkmN-8">
          <mxGeometry relative="1" as="geometry">
            <mxPoint x="390" y="330" as="targetPoint" />
            <Array as="points">
              <mxPoint x="390" y="320" />
            </Array>
          </mxGeometry>
        </mxCell>
        <mxCell id="IKgTBr2gHRtP3Sj3UkmN-16" value="Make a new board" style="whiteSpace=wrap;html=1;rounded=1;" vertex="1" parent="WIyWlLk6GJQsqaUBKTNV-1">
          <mxGeometry x="330" y="370" width="120" height="40" as="geometry" />
        </mxCell>
        <mxCell id="IKgTBr2gHRtP3Sj3UkmN-22" value="" style="edgeStyle=orthogonalEdgeStyle;rounded=0;orthogonalLoop=1;jettySize=auto;html=1;" edge="1" parent="WIyWlLk6GJQsqaUBKTNV-1" source="IKgTBr2gHRtP3Sj3UkmN-19" target="IKgTBr2gHRtP3Sj3UkmN-21">
          <mxGeometry relative="1" as="geometry" />
        </mxCell>
        <mxCell id="IKgTBr2gHRtP3Sj3UkmN-19" value="Continue until the selected cells have bombs in 8 directions" style="whiteSpace=wrap;html=1;rounded=1;" vertex="1" parent="WIyWlLk6GJQsqaUBKTNV-1">
          <mxGeometry x="160" y="510" width="120" height="60" as="geometry" />
        </mxCell>
        <mxCell id="IKgTBr2gHRtP3Sj3UkmN-23" value="No" style="edgeStyle=orthogonalEdgeStyle;rounded=0;orthogonalLoop=1;jettySize=auto;html=1;" edge="1" parent="WIyWlLk6GJQsqaUBKTNV-1" source="IKgTBr2gHRtP3Sj3UkmN-21" target="IKgTBr2gHRtP3Sj3UkmN-16">
          <mxGeometry relative="1" as="geometry" />
        </mxCell>
        <mxCell id="IKgTBr2gHRtP3Sj3UkmN-27" value="Yes" style="edgeStyle=orthogonalEdgeStyle;rounded=0;orthogonalLoop=1;jettySize=auto;html=1;" edge="1" parent="WIyWlLk6GJQsqaUBKTNV-1" source="IKgTBr2gHRtP3Sj3UkmN-21" target="IKgTBr2gHRtP3Sj3UkmN-26">
          <mxGeometry relative="1" as="geometry">
            <Array as="points">
              <mxPoint x="414" y="600" />
              <mxPoint x="220" y="600" />
            </Array>
          </mxGeometry>
        </mxCell>
        <mxCell id="IKgTBr2gHRtP3Sj3UkmN-21" value="Enough cells has been opened?" style="rhombus;whiteSpace=wrap;html=1;rounded=1;" vertex="1" parent="WIyWlLk6GJQsqaUBKTNV-1">
          <mxGeometry x="331" y="495" width="166" height="90" as="geometry" />
        </mxCell>
        <mxCell id="IKgTBr2gHRtP3Sj3UkmN-29" value="" style="edgeStyle=orthogonalEdgeStyle;rounded=0;orthogonalLoop=1;jettySize=auto;html=1;" edge="1" parent="WIyWlLk6GJQsqaUBKTNV-1" source="IKgTBr2gHRtP3Sj3UkmN-26" target="IKgTBr2gHRtP3Sj3UkmN-28">
          <mxGeometry relative="1" as="geometry" />
        </mxCell>
        <mxCell id="IKgTBr2gHRtP3Sj3UkmN-26" value="Update the board" style="whiteSpace=wrap;html=1;rounded=1;" vertex="1" parent="WIyWlLk6GJQsqaUBKTNV-1">
          <mxGeometry x="160" y="640" width="120" height="60" as="geometry" />
        </mxCell>
        <mxCell id="IKgTBr2gHRtP3Sj3UkmN-31" value="Flag" style="edgeStyle=orthogonalEdgeStyle;rounded=0;orthogonalLoop=1;jettySize=auto;html=1;" edge="1" parent="WIyWlLk6GJQsqaUBKTNV-1" source="IKgTBr2gHRtP3Sj3UkmN-28" target="IKgTBr2gHRtP3Sj3UkmN-30">
          <mxGeometry relative="1" as="geometry" />
        </mxCell>
        <mxCell id="IKgTBr2gHRtP3Sj3UkmN-37" value="Dig" style="edgeStyle=orthogonalEdgeStyle;rounded=0;orthogonalLoop=1;jettySize=auto;html=1;entryX=0.5;entryY=0;entryDx=0;entryDy=0;" edge="1" parent="WIyWlLk6GJQsqaUBKTNV-1" source="IKgTBr2gHRtP3Sj3UkmN-28" target="IKgTBr2gHRtP3Sj3UkmN-42">
          <mxGeometry relative="1" as="geometry">
            <mxPoint x="220" y="820" as="targetPoint" />
          </mxGeometry>
        </mxCell>
        <mxCell id="IKgTBr2gHRtP3Sj3UkmN-28" value="Select a cell to dig or to place flag&amp;nbsp;" style="whiteSpace=wrap;html=1;rounded=1;" vertex="1" parent="WIyWlLk6GJQsqaUBKTNV-1">
          <mxGeometry x="160" y="720" width="120" height="60" as="geometry" />
        </mxCell>
        <mxCell id="IKgTBr2gHRtP3Sj3UkmN-32" style="edgeStyle=orthogonalEdgeStyle;rounded=0;orthogonalLoop=1;jettySize=auto;html=1;entryX=1;entryY=0.25;entryDx=0;entryDy=0;" edge="1" parent="WIyWlLk6GJQsqaUBKTNV-1" source="IKgTBr2gHRtP3Sj3UkmN-30" target="IKgTBr2gHRtP3Sj3UkmN-28">
          <mxGeometry relative="1" as="geometry">
            <Array as="points">
              <mxPoint x="330" y="735" />
              <mxPoint x="330" y="735" />
            </Array>
          </mxGeometry>
        </mxCell>
        <mxCell id="IKgTBr2gHRtP3Sj3UkmN-30" value="Place Flag and update the board" style="whiteSpace=wrap;html=1;rounded=1;" vertex="1" parent="WIyWlLk6GJQsqaUBKTNV-1">
          <mxGeometry x="360" y="720" width="120" height="60" as="geometry" />
        </mxCell>
        <mxCell id="IKgTBr2gHRtP3Sj3UkmN-45" value="Yes" style="edgeStyle=orthogonalEdgeStyle;rounded=0;orthogonalLoop=1;jettySize=auto;html=1;" edge="1" parent="WIyWlLk6GJQsqaUBKTNV-1" source="IKgTBr2gHRtP3Sj3UkmN-42" target="IKgTBr2gHRtP3Sj3UkmN-44">
          <mxGeometry relative="1" as="geometry" />
        </mxCell>
        <mxCell id="IKgTBr2gHRtP3Sj3UkmN-49" value="No" style="edgeStyle=orthogonalEdgeStyle;rounded=0;orthogonalLoop=1;jettySize=auto;html=1;" edge="1" parent="WIyWlLk6GJQsqaUBKTNV-1" source="IKgTBr2gHRtP3Sj3UkmN-42" target="IKgTBr2gHRtP3Sj3UkmN-48">
          <mxGeometry relative="1" as="geometry" />
        </mxCell>
        <mxCell id="IKgTBr2gHRtP3Sj3UkmN-42" value="Is it a bomb?" style="rhombus;whiteSpace=wrap;html=1;" vertex="1" parent="WIyWlLk6GJQsqaUBKTNV-1">
          <mxGeometry x="160" y="820" width="120" height="80" as="geometry" />
        </mxCell>
        <mxCell id="IKgTBr2gHRtP3Sj3UkmN-44" value="Show bombs &lt;br&gt;Finish the game" style="whiteSpace=wrap;html=1;" vertex="1" parent="WIyWlLk6GJQsqaUBKTNV-1">
          <mxGeometry x="360" y="830" width="120" height="60" as="geometry" />
        </mxCell>
        <mxCell id="IKgTBr2gHRtP3Sj3UkmN-53" value="" style="edgeStyle=orthogonalEdgeStyle;rounded=0;orthogonalLoop=1;jettySize=auto;html=1;" edge="1" parent="WIyWlLk6GJQsqaUBKTNV-1" source="IKgTBr2gHRtP3Sj3UkmN-48" target="IKgTBr2gHRtP3Sj3UkmN-52">
          <mxGeometry relative="1" as="geometry" />
        </mxCell>
        <mxCell id="IKgTBr2gHRtP3Sj3UkmN-48" value="Dig it and neighboring cells&amp;nbsp;" style="whiteSpace=wrap;html=1;" vertex="1" parent="WIyWlLk6GJQsqaUBKTNV-1">
          <mxGeometry x="160" y="940" width="120" height="60" as="geometry" />
        </mxCell>
        <mxCell id="IKgTBr2gHRtP3Sj3UkmN-55" value="Yes" style="edgeStyle=orthogonalEdgeStyle;rounded=0;orthogonalLoop=1;jettySize=auto;html=1;" edge="1" parent="WIyWlLk6GJQsqaUBKTNV-1" source="IKgTBr2gHRtP3Sj3UkmN-52" target="IKgTBr2gHRtP3Sj3UkmN-54">
          <mxGeometry relative="1" as="geometry" />
        </mxCell>
        <mxCell id="IKgTBr2gHRtP3Sj3UkmN-57" value="No" style="edgeStyle=orthogonalEdgeStyle;rounded=0;orthogonalLoop=1;jettySize=auto;html=1;" edge="1" parent="WIyWlLk6GJQsqaUBKTNV-1" source="IKgTBr2gHRtP3Sj3UkmN-52" target="IKgTBr2gHRtP3Sj3UkmN-56">
          <mxGeometry relative="1" as="geometry" />
        </mxCell>
        <mxCell id="IKgTBr2gHRtP3Sj3UkmN-52" value="All of the bombs detected?" style="rhombus;whiteSpace=wrap;html=1;" vertex="1" parent="WIyWlLk6GJQsqaUBKTNV-1">
          <mxGeometry x="160" y="1030" width="120" height="80" as="geometry" />
        </mxCell>
        <mxCell id="IKgTBr2gHRtP3Sj3UkmN-54" value="Finish the game" style="whiteSpace=wrap;html=1;" vertex="1" parent="WIyWlLk6GJQsqaUBKTNV-1">
          <mxGeometry x="360" y="1040" width="120" height="60" as="geometry" />
        </mxCell>
        <mxCell id="IKgTBr2gHRtP3Sj3UkmN-58" style="edgeStyle=orthogonalEdgeStyle;rounded=0;orthogonalLoop=1;jettySize=auto;html=1;" edge="1" parent="WIyWlLk6GJQsqaUBKTNV-1" source="IKgTBr2gHRtP3Sj3UkmN-56">
          <mxGeometry relative="1" as="geometry">
            <mxPoint x="160" y="758" as="targetPoint" />
            <Array as="points">
              <mxPoint x="110" y="1199" />
              <mxPoint x="110" y="758" />
            </Array>
          </mxGeometry>
        </mxCell>
        <mxCell id="IKgTBr2gHRtP3Sj3UkmN-56" value="Update the board" style="whiteSpace=wrap;html=1;" vertex="1" parent="WIyWlLk6GJQsqaUBKTNV-1">
          <mxGeometry x="160" y="1169" width="120" height="60" as="geometry" />
        </mxCell>
      </root>
    </mxGraphModel>
  </diagram>
</mxfile>
